<?xml version="1.0" standalone="no"?>
<!DOCTYPE svg PUBLIC "-//W3C//DTD SVG 20010904//EN"
 "http://www.w3.org/TR/2001/REC-SVG-20010904/DTD/svg10.dtd">
<svg version="1.0" xmlns="http://www.w3.org/2000/svg"
 width="241.000000pt" height="246.000000pt" viewBox="0 0 241.000000 246.000000"
 preserveAspectRatio="xMidYMid meet">

<g transform="translate(0.000000,246.000000) scale(0.100000,-0.100000)"
fill="#000000" stroke="none">
<path d="M1058 2421 c-67 -27 -100 -52 -219 -167 -89 -87 -118 -109 -185 -140
-293 -133 -415 -218 -473 -333 l-21 -40 -67 -3 -68 -3 0 -30 c0 -29 2 -30 52
-33 29 -2 53 -5 53 -7 0 -2 -6 -32 -14 -67 -43 -192 -46 -488 -7 -646 12 -46
21 -85 21 -87 0 -2 -24 -5 -52 -7 -51 -3 -53 -4 -53 -33 l0 -30 70 -3 70 -3
45 -82 c131 -237 527 -522 908 -654 l103 -36 92 43 c319 150 450 224 605 341
132 100 246 223 304 329 32 59 34 60 76 60 49 0 82 14 82 35 0 18 -31 35 -66
35 -22 0 -25 3 -20 22 39 144 48 226 42 398 -5 155 -19 276 -41 363 -7 26 -6
27 34 27 31 0 43 5 52 22 16 30 -11 48 -72 48 -45 0 -48 2 -79 50 -64 99 -170
175 -381 273 -172 80 -169 78 -290 207 -150 159 -171 170 -333 170 -93 -1
-132 -5 -168 -19z m294 -84 c31 -14 92 -65 167 -140 117 -115 123 -119 248
-178 252 -119 314 -157 374 -231 l30 -39 -23 -19 c-19 -15 -21 -22 -12 -37 6
-10 25 -19 42 -21 27 -3 33 -9 42 -40 41 -145 56 -484 27 -617 -28 -126 -38
-148 -75 -157 -42 -11 -52 -35 -23 -57 l22 -17 -39 -59 c-21 -33 -60 -84 -86
-113 -96 -105 -325 -271 -486 -352 -103 -52 -320 -150 -332 -150 -4 0 -8 77
-8 171 l0 170 -29 -20 c-39 -28 -41 -27 -28 15 10 34 9 38 -16 60 -35 30 -34
34 8 34 67 0 65 -34 65 946 l0 874 43 0 c23 0 63 -10 89 -23z m-419 -579 c11
-14 17 -37 17 -74 0 -51 -2 -54 -24 -54 -23 0 -25 5 -28 47 -2 36 -7 49 -20
51 -33 6 -22 -68 24 -170 28 -63 43 -111 46 -150 4 -50 2 -59 -21 -82 -31 -31
-65 -33 -101 -5 -22 18 -26 28 -26 75 0 51 1 54 25 54 23 0 25 -4 25 -45 0
-48 23 -72 41 -44 14 22 1 74 -47 187 -45 105 -53 152 -33 196 22 47 87 54
122 14z m-482 -118 c9 -74 18 -128 22 -120 3 8 11 70 18 138 l12 122 38 0 39
0 0 -235 0 -235 -31 0 -32 0 5 115 c2 63 1 115 -4 115 -4 0 -8 -12 -8 -27 0
-15 -5 -66 -11 -115 -11 -81 -13 -88 -34 -88 -21 0 -23 6 -34 103 -18 152 -18
152 -20 20 l-1 -123 -25 0 -25 0 0 236 0 235 38 -3 37 -3 16 -135z m296 -60
c12 -107 22 -212 22 -233 1 -36 -1 -38 -26 -35 -25 3 -28 7 -31 46 -3 34 -7
42 -23 42 -13 0 -19 -7 -19 -22 0 -47 -12 -68 -36 -68 -13 0 -24 3 -24 8 0 4
11 104 25 222 14 118 25 221 25 228 0 9 11 12 33 10 l32 -3 22 -195z m304 103
l1 -98 20 98 c20 96 21 97 50 97 23 0 28 -4 24 -17 -3 -10 -14 -56 -25 -102
l-19 -84 24 -131 c13 -72 24 -132 24 -133 0 -2 -13 -3 -29 -3 -29 0 -29 1 -41
88 -15 100 -28 90 -29 -20 l-1 -68 -30 0 -30 0 0 235 0 235 30 0 30 0 1 -97z
m-154 -465 c22 -21 23 -26 23 -209 0 -103 -3 -195 -6 -204 -8 -20 -56 -45 -88
-45 -14 0 -38 11 -53 24 l-28 24 -3 180 c-3 151 -1 186 13 212 28 54 95 62
142 18z m210 8 c25 -22 28 -31 28 -88 0 -61 -1 -63 -27 -66 -26 -3 -27 -2 -30
55 -3 50 -6 58 -23 58 -19 0 -20 -7 -20 -180 0 -178 0 -180 22 -183 20 -3 22
1 25 55 3 54 5 58 28 58 23 0 25 -4 28 -52 5 -91 -31 -132 -104 -119 -60 12
-64 28 -64 241 0 199 2 210 45 233 32 18 62 14 92 -12z m-602 -11 c22 -21 25
-33 25 -92 0 -38 -6 -80 -14 -94 -11 -22 -11 -29 0 -44 17 -23 19 -147 3 -178
-18 -33 -28 -37 -96 -37 l-63 0 0 235 0 235 60 0 c51 0 65 -4 85 -25z m135
-184 l0 -210 38 -3 c29 -2 38 -8 40 -24 2 -14 -3 -23 -17 -27 -29 -7 -115 4
-123 17 -9 13 -10 401 -2 434 5 16 14 22 35 22 l29 0 0 -209z m260 -478 c0 -8
16 -13 43 -13 l42 -1 -32 -27 c-24 -21 -29 -31 -23 -47 5 -11 9 -28 9 -38 1
-17 -1 -17 -25 2 -33 26 -39 26 -76 0 l-30 -22 7 24 c3 13 9 31 11 40 3 11 -8
27 -28 43 l-33 26 38 0 c34 0 38 3 54 42 l17 42 12 -29 c7 -17 13 -36 14 -42z"/>
<path d="M1809 1757 c-18 -12 -44 -38 -56 -56 -23 -34 -23 -34 -23 -436 0
-402 0 -402 23 -436 72 -107 225 -107 279 1 14 28 18 61 18 158 l0 122 -50 0
-50 0 0 -114 c0 -124 -6 -138 -57 -138 -52 0 -53 6 -53 402 0 402 1 410 59
410 46 0 51 -15 51 -137 l0 -113 50 0 50 0 0 123 c0 138 -12 175 -70 215 -46
31 -124 31 -171 -1z"/>
<path d="M1320 1265 l0 -505 113 0 c93 0 117 3 144 20 70 42 68 28 68 486 0
401 -1 413 -21 441 -37 50 -77 63 -196 63 l-108 0 0 -505z m208 5 c3 -424 5
-410 -59 -410 -23 0 -28 5 -31 28 -2 15 -2 195 0 400 l2 373 43 -3 42 -3 3
-385z"/>
<path d="M1538 576 c-16 -32 -22 -36 -55 -36 l-38 0 32 -22 c35 -25 38 -33 23
-72 -11 -31 -7 -32 30 -6 28 20 28 20 53 0 34 -27 37 -25 26 13 -9 29 -7 34
23 60 l32 27 -41 0 c-37 0 -41 3 -54 36 l-14 37 -17 -37z"/>
<path d="M1230 524 c0 -65 2 -73 25 -88 33 -22 35 -21 24 17 -8 29 -6 34 18
54 l28 23 -33 0 c-28 0 -35 5 -47 33 -14 32 -14 31 -15 -39z"/>
<path d="M686 1569 c-10 -54 -7 -121 6 -117 8 3 11 27 9 74 -3 79 -6 88 -15
43z"/>
<path d="M810 1004 l0 -185 23 3 c22 3 22 5 24 168 1 91 -1 173 -3 183 -3 9
-14 17 -25 17 -18 0 -19 -9 -19 -186z"/>
<path d="M420 1110 c0 -72 2 -81 18 -78 14 3 17 15 17 78 0 63 -3 75 -17 78
-16 3 -18 -6 -18 -78z"/>
<path d="M420 900 c0 -73 2 -80 20 -80 18 0 20 7 20 80 0 73 -2 80 -20 80 -18
0 -20 -7 -20 -80z"/>
</g>
</svg>
