<?xml version="1.0" encoding="utf-8"?>
<svg xmlns="http://www.w3.org/2000/svg" viewBox="1.6638 2.715 237.2404 242.3" width="237.24pt" height="242.3pt" xmlns:bx="https://boxy-svg.com" preserveAspectRatio="none"><g transform="matrix(0.10000000149011613, 0, 0, -0.10000000149011613, -0.031304002439014766, 246.71480294544023)" fill="#000000" stroke="none" style="" id="object-0"><path d="M 1331.859 -100.038 L 1282.356 -100.038 C 1257.908 -95.197 1232.762 -96.557 1210.018 -100.224 C 1182.916 -104.594 1154.978 -116.774 1133.515 -129.975 C 1113.823 -142.086 1098.661 -155.865 1084.638 -174.602 C 1069.101 -195.362 1053.763 -221.284 1046.387 -251.104 C 1037.967 -285.144 1038.438 -328.641 1042.137 -370.108 C 1046.12 -414.772 1053.331 -464.451 1071.888 -510.362 C 1091.745 -559.493 1142.33 -582.67 1161.141 -654.867 C 1190.345 -766.955 1169.729 -1039.111 1169.641 -1164.884 C 1169.581 -1250.594 1170.81 -1284.75 1165.391 -1360.39 C 1158.715 -1453.583 1134.065 -1584.376 1127.14 -1687.651 C 1120.725 -1783.307 1115.775 -1901.751 1122.89 -1959.66 C 1127.052 -1993.543 1149.462 -2003.847 1144.14 -2027.662 C 1137.567 -2057.078 1083.188 -2086.111 1067.637 -2121.165 C 1052.338 -2155.654 1047.38 -2201.863 1050.637 -2235.919 C 1053.527 -2266.14 1066.557 -2293.852 1080.388 -2316.671 C 1093.28 -2337.941 1107.862 -2355.15 1129.265 -2369.798 C 1153.746 -2386.553 1192.026 -2402.677 1222.768 -2408.049 C 1251.473 -2413.065 1282.71 -2409.47 1307.771 -2403.799 C 1330.235 -2398.716 1343.357 -2394.265 1367.274 -2378.298 C 1403.796 -2353.916 1464.39 -2295.393 1505.404 -2252.919 C 1543.816 -2213.14 1567.874 -2159.914 1607.408 -2131.79 C 1644.366 -2105.498 1694.593 -2105.88 1732.787 -2085.039 C 1770.251 -2064.596 1791.003 -2035.239 1834.791 -2008.536 C 1891.845 -1973.743 1998.464 -1933.618 2055.799 -1898.033 C 2100.387 -1870.36 2144.843 -1833.309 2159.928 -1817.28 C 2166.599 -1810.192 2164.693 -1805.978 2168.429 -1802.404 C 2171.9 -1799.084 2175.331 -1802.704 2181.179 -1796.029 C 2197.328 -1777.597 2244.768 -1699.88 2266.182 -1636.649 C 2291.243 -1562.651 2306.757 -1436.608 2312.934 -1373.141 C 2316.99 -1331.466 2316.424 -1325.7 2312.934 -1279.637 C 2306.781 -1198.429 2286.706 -995.271 2261.932 -897.125 C 2243.546 -824.287 2225.216 -782.38 2193.93 -727.119 C 2160.538 -668.139 2134.549 -619.282 2064.3 -554.989 C 1957.826 -457.541 1677.992 -273.695 1558.531 -214.978 C 1487.16 -179.898 1442.209 -188.643 1397.025 -168.226 C 1371.558 -156.719 1351.705 -137.734 1331.859 -122.9 Z" style="fill: rgb(255, 255, 255);" transform="matrix(1, 0, 0, -1, 0, 0)"><title>white middle line</title></path><path stroke-width="0" d="M 1171.769 2361.498 C 1150.199 2345.478 1135.119 2327.198 1122.889 2304.128 C 1122.208 2302.842 1121.529 2301.553 1120.856 2300.259 C 1096.701 2294.555 1071.35 2282.18 1053.68 2269.57 C 1035.447 2256.558 1026.565 2236.347 1012.491 2221.791 C 999.075 2207.915 991.43 2197.225 971.302 2183.897 C 942.013 2164.503 893.769 2142.448 842.792 2121.29 C 780.325 2095.363 683.443 2073.039 618.723 2042.207 C 561.503 2014.948 508.642 1980.896 470.442 1949.944 C 439.426 1924.812 424.603 1893.191 399.597 1874.156 C 377.107 1857.037 349.28 1856.906 328.752 1837.91 C 305.607 1816.493 282.281 1784.159 271.087 1747.294 C 258.124 1704.602 270.396 1647.49 264.497 1592.424 C 258.001 1531.794 236.925 1461.283 231.545 1398.012 C 226.383 1337.288 226.345 1265.94 231.545 1220.076 C 235.351 1186.513 240.216 1166.311 251.316 1140.993 C 262.889 1114.597 296.688 1085.719 300.743 1065.206 C 303.596 1050.773 292.966 1047.374 290.858 1028.96 C 287.111 996.236 281.106 918.785 290.858 870.794 C 299.951 826.04 318.187 782.855 343.58 748.875 C 368.47 715.567 400.489 691.334 440.786 668.145 C 465.312 654.031 503.147 644.897 538.017 635.097 C 539.09 627.505 540.55 620.06 542.386 612.834 C 549.568 584.556 562.652 557.441 581.927 533.751 C 602.794 508.105 630.168 489.432 665.953 466.201 C 669.341 464.002 672.794 461.785 676.314 459.554 C 677.406 458.253 678.528 456.939 679.683 455.61 C 708.699 422.224 757.058 369.669 806.546 345.223 C 857.212 320.196 922.778 312.225 981.187 308.977 C 993.157 308.311 1005.761 308.152 1018.612 308.416 C 1025.325 306.193 1032.004 304.009 1038.621 301.874 C 1037.745 281.241 1041.365 261.916 1046.389 242.808 C 1053.469 215.858 1069.099 187.068 1084.639 166.308 C 1098.659 147.568 1113.819 133.788 1133.519 121.678 C 1154.979 108.478 1183.719 96.868 1210.019 91.928 C 1236.149 87.018 1264.559 87.668 1290.769 91.928 C 1316.969 96.178 1342.169 104.298 1367.269 117.428 C 1394.669 131.748 1408.359 153.358 1448.029 176.928 C 1510.909 214.298 1683.289 281.458 1732.789 317.188 C 1758.509 335.748 1750.469 344.218 1773.159 363.938 C 1812.589 398.198 1929.929 463.788 1975.049 504.188 C 2006.099 531.988 2015.329 559.618 2036.669 578.568 C 2055.199 595.018 2075.049 598.388 2094.049 614.688 C 2116.189 633.698 2135.969 652.938 2159.929 689.068 C 2195.249 742.338 2254.409 855.898 2278.929 922.828 C 2297.969 974.778 2303.449 993.128 2308.679 1058.828 C 2317.399 1168.178 2318.999 1434.418 2295.929 1556.098 C 2279.729 1641.618 2247.889 1699.058 2219.429 1747.358 C 2197.159 1785.148 2157.879 1820.518 2147.179 1832.358 C 2143.269 1836.688 2143.369 1835.608 2140.799 1838.728 C 2136.879 1843.498 2140.479 1848.848 2125.929 1859.988 C 2077.419 1897.108 1767.109 2036.788 1660.539 2106.488 C 1589.179 2153.168 1545.939 2187.288 1511.779 2229.748 C 1483.479 2264.928 1483.919 2309.638 1458.649 2338.128 C 1433.979 2365.948 1396.309 2389.018 1363.019 2399.748 C 1331.689 2409.858 1296.859 2410.168 1265.269 2403.998 C 1233.069 2397.718 1196.179 2379.638 1171.769 2361.498 Z" style="stroke-width: 2px; fill: rgb(255, 255, 255); stroke: rgb(255, 255, 255);"><title>white bg</title></path><path d="M 1116.859 -2380.178 L 1226.369 -2380.178 L 1226.369 -110.048 L 1116.859 -110.048 L 1116.859 -597.383 C 1128.442 -599.381 1138.11 -601.749 1142.349 -601.903 C 1146.699 -602.061 1147.096 -598.626 1148.895 -603.213 C 1154.433 -617.333 1165.204 -740.125 1165.271 -846.94 C 1166.376 -920.282 1165.954 -1000.272 1167.099 -1058.698 C 1168.403 -1125.228 1167.341 -1204.763 1166.187 -1275.185 C 1168.894 -1352.082 1171.822 -1458.965 1167.693 -1519.987 C 1169.663 -1600.143 1175.032 -1759.808 1168.347 -1829.839 C 1169.149 -1902.26 1167.25 -1967.957 1158.371 -1985.192 C 1150.948 -1999.601 1133.552 -1995.619 1128.259 -1993.047 C 1124.314 -1991.13 1125.311 -1989.941 1124.331 -1978.646 C 1123.364 -1967.499 1121.598 -1937.212 1119.931 -1898.068 C 1118.84 -1898.581 1117.804 -1899.037 1116.859 -1899.417 Z" style="" transform="matrix(1, 0, 0, -1, 0, 0)"><title>black middle line</title></path><path d="M 1057.999 2420.998 C 990.999 2393.998 957.999 2368.998 838.999 2253.998 C 749.999 2166.998 720.999 2144.998 653.999 2113.998 C 360.999 1980.998 238.999 1895.998 180.999 1780.998 L 159.999 1740.998 L 92.999 1737.998 L 24.999 1734.998 L 24.999 1704.998 C 24.999 1675.998 26.999 1674.998 76.999 1671.998 C 105.999 1669.998 129.999 1666.998 129.999 1664.998 C 129.999 1662.998 123.999 1632.998 115.999 1597.998 C 72.999 1405.998 69.999 1109.998 108.999 951.998 C 120.999 905.998 129.999 866.998 129.999 864.998 C 129.999 862.998 105.999 859.998 77.999 857.998 C 26.999 854.998 24.999 853.998 24.999 824.998 L 24.999 794.998 L 94.999 791.998 L 164.999 788.998 L 209.999 706.998 C 340.999 469.998 736.999 184.998 1117.999 52.998 L 1220.999 16.998 L 1312.999 59.998 C 1631.999 209.998 1762.999 283.998 1917.999 400.998 C 2049.999 500.998 2163.999 623.998 2221.999 729.998 C 2253.999 788.998 2255.999 789.998 2297.999 789.998 C 2346.999 789.998 2379.999 803.998 2379.999 824.998 C 2379.999 842.998 2348.999 859.998 2313.999 859.998 C 2291.999 859.998 2288.999 862.998 2293.999 881.998 C 2332.999 1025.998 2341.999 1107.998 2335.999 1279.998 C 2330.999 1434.998 2316.999 1555.998 2294.999 1642.998 C 2287.999 1668.998 2288.999 1669.998 2328.999 1669.998 C 2359.999 1669.998 2371.999 1674.998 2380.999 1691.998 C 2396.999 1721.998 2369.999 1739.998 2308.999 1739.998 C 2263.999 1739.998 2260.999 1741.998 2229.999 1789.998 C 2165.999 1888.998 2059.999 1964.998 1848.999 2062.998 C 1676.999 2142.998 1679.999 2140.998 1558.999 2269.998 C 1408.999 2428.998 1387.999 2439.998 1225.999 2439.998 C 1132.999 2438.998 1093.999 2434.998 1057.999 2420.998 Z M 1351.999 2336.998 C 1382.999 2322.998 1443.999 2271.998 1518.999 2196.998 C 1635.999 2081.998 1641.999 2077.998 1766.999 2018.998 C 2018.999 1899.998 2080.999 1861.998 2140.999 1787.998 L 2170.999 1748.998 L 2147.999 1729.998 C 2128.999 1714.998 2126.999 1707.998 2135.999 1692.998 C 2141.999 1682.998 2160.999 1673.998 2177.999 1671.998 C 2204.999 1668.998 2210.999 1662.998 2219.999 1631.998 C 2260.999 1486.998 2275.999 1147.998 2246.999 1014.998 C 2218.999 888.998 2208.999 866.998 2171.999 857.998 C 2129.999 846.998 2119.999 822.998 2148.999 800.998 L 2170.999 783.998 L 2131.999 724.998 C 2110.999 691.998 2071.999 640.998 2045.999 611.998 C 1949.999 506.998 1720.999 340.998 1559.999 259.998 C 1456.999 207.998 1239.999 109.998 1227.999 109.998 C 1223.999 109.998 1219.999 186.998 1219.999 280.998 L 1219.999 450.998 L 1190.999 430.998 C 1151.999 402.998 1149.999 403.998 1162.999 445.998 C 1172.999 479.998 1171.999 483.998 1146.999 505.998 C 1111.999 535.998 1112.999 539.998 1154.999 539.998 C 1186.089 539.998 1214.609 523.408 1214.809 621.658 C 1214.869 651.358 1216.599 692.458 1216.879 746.798 C 1217.579 883.518 1219.999 1110.178 1219.999 1485.998 L 1219.999 2359.998 L 1262.999 2359.998 C 1285.999 2359.998 1325.999 2349.998 1351.999 2336.998 Z M 932.999 1757.998 C 943.999 1743.998 949.999 1720.998 949.999 1683.998 C 949.999 1653.495 948.431 1634.443 947.446 1633.684 C 945.473 1632.164 907.347 1632.611 905.336 1633.212 C 903.421 1633.784 900.999 1634.998 897.999 1676.998 C 895.999 1712.998 890.999 1725.998 877.999 1727.998 C 844.999 1733.998 855.999 1659.998 901.999 1557.998 C 929.999 1494.998 944.999 1446.998 947.999 1407.998 C 951.999 1357.998 949.999 1348.998 926.999 1325.998 C 895.999 1294.998 861.999 1292.998 825.999 1320.998 C 803.999 1338.998 800.917 1349.228 800.917 1396.228 C 800.917 1426.413 803.261 1444.199 803.545 1446.357 C 803.748 1447.899 846.137 1446.834 848.417 1446.784 C 851.045 1446.726 849.999 1445.998 849.999 1404.998 C 849.999 1356.998 872.999 1332.998 890.999 1360.998 C 904.999 1382.998 891.999 1434.998 843.999 1547.998 C 798.999 1652.998 790.999 1699.998 810.999 1743.998 C 832.999 1790.998 897.999 1797.998 932.999 1757.998 Z M 450.999 1639.998 C 459.999 1565.998 467.55 1531.327 471.308 1520.964 C 475.516 1532.83 483.999 1589.998 490.999 1657.998 L 502.999 1779.998 L 540.999 1779.998 L 579.999 1779.998 L 579.999 1544.998 L 579.999 1309.998 L 548.999 1309.998 L 516.999 1309.998 L 521.999 1424.998 C 523.999 1487.998 525.232 1535.193 523.314 1530.575 C 521.005 1525.017 522.08 1527.514 518.455 1511.306 C 514.83 1495.098 504.999 1446.998 498.999 1397.998 C 487.999 1316.998 487.748 1312.766 485.518 1309.818 C 484.943 1309.058 455.833 1309.606 446.958 1309.959 C 444.141 1310.071 438.275 1348.835 430.999 1412.998 C 412.999 1564.998 412.999 1564.998 410.999 1432.998 L 409.999 1309.998 L 384.999 1309.998 L 359.999 1309.998 L 359.999 1545.998 L 359.999 1780.998 L 398.408 1780.454 L 436.432 1780.524 L 450.999 1639.998 Z M 746.999 1579.998 C 758.999 1472.998 767.087 1367.911 768.999 1346.998 C 772.29 1310.998 774.918 1309.394 773.361 1309.134 C 772.054 1308.916 719.268 1308.743 717.165 1310.281 C 715.318 1311.632 713.734 1335.441 711.999 1357.998 C 708.999 1391.998 708.423 1396.423 707.044 1397.42 C 704.367 1399.355 674.052 1399.814 673.723 1397.189 C 670.863 1374.368 665.15 1311.437 664.171 1309.425 C 663.856 1308.779 608.856 1307.658 609.426 1309.978 C 611.653 1319.047 620.999 1421.998 634.999 1539.998 C 648.999 1657.998 659.78 1769.973 659.78 1776.973 C 659.78 1778.311 670.999 1777.59 692.999 1777.998 L 724.78 1776.968 L 746.999 1579.998 Z M 1050.999 1682.998 L 1051.999 1584.998 L 1071.999 1682.998 C 1091.999 1778.998 1089.337 1778.06 1091.377 1778.557 C 1094.922 1779.421 1145.67 1777.018 1147.8 1776.328 C 1150.334 1775.507 1131.999 1706.998 1120.999 1660.998 L 1092.272 1544.215 L 1120.955 1447.079 C 1138.278 1376.16 1149.999 1313.998 1149.999 1312.998 C 1149.999 1310.998 1096.012 1312.098 1091.275 1311.43 C 1091.027 1311.395 1076.491 1391.101 1074.276 1399.43 C 1070.075 1415.225 1061.34 1450.998 1053.865 1465.737 L 1049.999 1309.998 L 1019.999 1309.998 L 989.999 1309.998 L 989.999 1544.998 L 989.999 1779.998 L 1019.999 1779.998 L 1049.999 1779.998 L 1050.999 1682.998 Z M 908.285 1200.506 C 917.195 1173.683 919.999 1191.998 919.999 1008.998 C 919.999 905.998 922.077 816.82 913.999 806.691 C 913.335 805.312 899.545 760.849 832.206 762.255 C 768.143 763.592 750.787 801.745 748.12 809.038 C 741.618 826.816 741.999 987.998 741.999 987.998 C 738.999 1138.998 744.305 1172.473 754.999 1199.998 C 779.049 1261.898 885.034 1270.501 908.285 1200.506 Z M 1106.999 1225.998 C 1131.999 1203.998 1134.565 1154.643 1134.999 1137.998 C 1135.203 1130.161 1134.715 1080.216 1131.945 1078.315 C 1129.079 1076.348 1098.674 1077.366 1087.319 1078.335 C 1085.913 1078.455 1084.621 1103.728 1084.002 1128.999 C 1083.572 1146.57 1086.654 1190.84 1054.999 1184.998 C 1036.315 1181.549 1034.999 1177.998 1034.999 1004.998 C 1034.999 826.998 1033.993 830.077 1056.999 821.998 C 1083.165 812.809 1086.849 870.973 1087.417 876.482 C 1090.657 907.916 1089.36 926.044 1091.438 934.43 C 1091.98 936.617 1131.251 936.475 1138.165 935.063 C 1139.905 934.708 1139.513 930.998 1137.999 882.998 C 1135.125 791.906 1106.999 750.998 1033.999 763.998 C 973.999 775.998 969.999 791.998 969.999 1004.998 C 969.999 1203.998 985.033 1221.35 1014.999 1237.998 C 1034.619 1248.898 1076.999 1251.998 1106.999 1225.998 Z M 504.999 1214.998 C 526.999 1193.998 529.999 1181.998 529.999 1122.998 C 529.999 1084.998 523.999 1042.998 515.999 1028.998 C 511.766 1020.531 507.91 1011.8 508.187 1008.952 C 508.503 1005.704 512.862 994.225 515.999 984.998 C 525.206 957.92 534.999 837.998 518.999 806.998 C 500.999 773.998 490.999 769.998 422.999 769.998 L 359.999 769.998 L 359.999 1004.998 L 359.999 1239.998 L 419.999 1239.998 C 470.999 1239.998 484.999 1235.998 504.999 1214.998 Z M 639.999 1030.998 L 639.635 831.183 L 678.363 830.941 C 704.762 831.022 705.389 830.46 709.73 830.511 C 718.286 830.612 712.919 792.327 712.444 773.241 C 684.484 775.085 594.323 770.999 576.959 774.635 C 567.959 787.635 576.002 1205.733 577.818 1239.824 C 589.366 1240.182 589.999 1239.998 610.999 1239.998 L 639.999 1239.998 L 639.999 1030.998 Z M 899.999 552.998 C 899.999 544.998 915.999 539.998 942.999 539.998 L 984.999 538.998 L 952.999 511.998 C 928.999 490.998 923.999 480.998 929.999 464.998 C 934.999 453.998 938.999 436.998 938.999 426.998 C 939.999 409.998 937.999 409.998 913.999 428.998 C 880.999 454.998 874.999 454.998 837.999 428.998 L 807.999 406.998 L 814.999 430.998 C 817.999 443.998 823.999 461.998 825.999 470.998 C 828.999 481.998 817.999 497.998 797.999 513.998 L 764.999 539.998 L 802.999 539.998 C 836.999 539.998 840.999 542.998 856.999 581.998 L 873.999 623.998 L 885.999 594.998 C 892.999 577.998 898.999 558.998 899.999 552.998 Z" style=""/><path d="M1809 1757 c-18 -12 -44 -38 -56 -56 -23 -34 -23 -34 -23 -436 0 -402 0 -402 23 -436 72 -107 225 -107 279 1 14 28 18 61 18 158 l0 122 -50 0 -50 0 0 -114 c0 -124 -6 -138 -57 -138 -52 0 -53 6 -53 402 0 402 1 410 59 410 46 0 51 -15 51 -137 l0 -113 50 0 50 0 0 123 c0 138 -12 175 -70 215 -46 31 -124 31 -171 -1z" style=""/><path d="M1320 1265 l0 -505 113 0 c93 0 117 3 144 20 70 42 68 28 68 486 0 401 -1 413 -21 441 -37 50 -77 63 -196 63 l-108 0 0 -505z m208 5 c3 -424 5 -410 -59 -410 -23 0 -28 5 -31 28 -2 15 -2 195 0 400 l2 373 43 -3 42 -3 3 -385z" style=""/><path d="M1538 576 c-16 -32 -22 -36 -55 -36 l-38 0 32 -22 c35 -25 38 -33 23 -72 -11 -31 -7 -32 30 -6 28 20 28 20 53 0 34 -27 37 -25 26 13 -9 29 -7 34 23 60 l32 27 -41 0 c-37 0 -41 3 -54 36 l-14 37 -17 -37z" style="visibility: hidden;"/><path d="M1230 524 c0 -65 2 -73 25 -88 33 -22 35 -21 24 17 -8 29 -6 34 18 54 l28 23 -33 0 c-28 0 -35 5 -47 33 -14 32 -14 31 -15 -39z" style="visibility: hidden;"/><g><title>mask straps</title><path d="M 686 1518.798 C 682.077 1474.154 679.185 1466.494 680.063 1454.697 C 680.288 1451.669 705.49 1452.775 703.812 1453.687 C 703.374 1462.593 703 1479 701 1526 C 699.07 1576.834 695.03 1605.434 694.876 1595.814 C 694.836 1593.294 687.432 1535.097 686 1518.798 Z" style=""/><path d="M 810 1004 C 810 1004 805.722 859.629 815.202 832.005 C 818.106 823.543 833 822 833 822 C 855 825 855 827 857 990 C 858 1081 856 1163 854 1173 C 852.04 1189.803 839.546 1193.128 829 1190 C 816.722 1186.359 810 1181 810 1004 Z" style=""/><path d="M 420 1110 C 420 1067 419.643 1045.401 420.416 1035.051 C 420.907 1028.479 431.556 1030.792 438 1032 C 452 1035 455 1047 455 1110 C 455 1173 450.501 1183.558 437.287 1189.07 C 431.074 1191.662 421.619 1192.001 421.425 1185.577 C 421.123 1175.58 420 1154.041 420 1110 Z" style=""/><path d="M 420 900 C 420 855.44 420.032 835.115 421.14 823.109 C 421.724 816.779 433.344 817.147 440 818.93 C 457.387 823.588 460 827 460 900 C 460 973 458 980 440 980 C 433.817 980 421.356 980.862 421.197 975.845 C 420.862 965.265 420 947.925 420 900 Z" style=""/></g><rect x="756.369" y="-646.468" width="285.77" height="264.04" style="" transform="matrix(1, 0, 0, -1, 0, 0)"><title>cover white star</title></rect><path d="M 2389.131 1708.288 C 2389.131 1698.937 2387.442 1677.288 2374.138 1669.991 C 2350.832 1657.209 2304.376 1661.698 2258.42 1661.698 C 2209.025 1661.698 2162.577 1657.66 2140.35 1672.071 C 2130.093 1678.72 2127.709 1700.163 2127.709 1708.288 C 2127.709 1717.639 2130.261 1735.837 2143.565 1743.134 C 2166.871 1755.916 2212.464 1754.878 2258.42 1754.878 C 2301.481 1754.878 2348.307 1752.632 2372.122 1741.181 C 2388.231 1733.436 2389.131 1718.67 2389.131 1708.288 Z"/><path d="M 2389.355 824.697 C 2389.355 815.346 2387.666 793.697 2374.362 786.4 C 2351.056 773.618 2304.6 778.107 2258.644 778.107 C 2209.249 778.107 2162.801 774.069 2140.574 788.48 C 2130.317 795.129 2127.933 816.572 2127.933 824.697 C 2127.933 834.048 2130.485 852.246 2143.789 859.543 C 2167.095 872.325 2212.688 871.287 2258.644 871.287 C 2301.705 871.287 2348.531 869.041 2372.346 857.59 C 2388.455 849.845 2389.355 835.079 2389.355 824.697 Z"/><path d="M 278.373 823.214 C 278.373 813.863 276.684 792.214 263.38 784.917 C 240.074 772.135 193.618 776.624 147.662 776.624 C 98.267 776.624 51.819 772.586 29.592 786.997 C 19.335 793.646 16.951 815.089 16.951 823.214 C 16.951 832.565 19.503 850.763 32.807 858.06 C 56.113 870.842 101.706 869.804 147.662 869.804 C 190.723 869.804 237.549 867.558 261.364 856.107 C 277.473 848.362 278.373 833.596 278.373 823.214 Z"/><path d="M 279.337 1709.305 C 279.337 1699.954 277.648 1678.305 264.344 1671.008 C 241.038 1658.226 194.582 1662.715 148.626 1662.715 C 99.231 1662.715 52.783 1658.677 30.556 1673.088 C 20.299 1679.737 17.915 1701.18 17.915 1709.305 C 17.915 1718.656 20.467 1736.854 33.771 1744.151 C 57.077 1756.933 102.67 1755.895 148.626 1755.895 C 191.687 1755.895 238.513 1753.649 262.328 1742.198 C 278.437 1734.453 279.337 1719.687 279.337 1709.305 Z"/><g transform="matrix(10, 0, 0, -10, -0.00071, 2454.308155)"><title>stars</title><path d="M 155.839 183.933 L 158.523 191.889 L 166.697 192.06 L 160.182 197.149 L 162.55 205.211 L 155.839 200.4 L 149.128 205.211 L 151.496 197.149 L 144.981 192.06 L 153.155 191.889 Z" bx:shape="star 155.839 195.695 11.417 11.762 0.4 5 1@12ff0a57" style="opacity: 1;"><title>black star</title></path><path d="M 87.716 183.836 L 90.4 191.792 L 98.574 191.963 L 92.059 197.052 L 94.427 205.114 L 87.716 200.303 L 81.005 205.114 L 83.373 197.052 L 76.858 191.963 L 85.032 191.792 Z" bx:shape="star 87.716 195.598 11.417 11.762 0.4 5 1@8c943720" style="opacity: 1; fill: rgb(255, 255, 255);"><title>white star</title></path><g transform="matrix(1, 0, 0, 1, 0, 0.410917)"><title>split star</title><path d="M 133.465 188.371 L 126.754 183.56 L 129.122 191.622 L 122.607 196.711 L 130.781 196.882 L 133.504 204.729 C 133.517 198.864 133.457 192.461 133.499 188.347 L 133.465 188.371 Z" style="opacity: 1; transform-box: fill-box; transform-origin: 50% 50%;" transform="matrix(-1, 0, 0, -1, 0.000022, -0.000005)"><title>black star half</title></path><path d="M 122.606 199.908 L 115.895 204.719 L 118.263 196.657 L 111.748 191.568 L 119.922 191.397 L 122.645 183.55 C 122.658 189.415 122.598 195.818 122.64 199.932 L 122.606 199.908 Z" style="opacity: 1; fill: rgb(255, 255, 255); transform-origin: 117.197px 194.135px;"><title>white star half</title></path></g><text style="white-space: pre; fill: rgb(51, 51, 51); font-family: Arial, sans-serif; font-size: 28px;" x="22.234" y="31.936"> </text></g></g></svg>